# xmcd
# 
# Track frame offsets:
#     150
#     50313
#     87072
#     117834
#     144703
#     192266
# 
# Disc length: 2975
# 
# Revision: 1
# Processed by: cddbd v1.5.2PL0 Copyright (c) Steve Scherf et al.
# Submitted via: fre:ac v1.0.31
# 
DISCID=4a0b9d06
DTITLE=Keith Jarrett - Testament Disc 2
DYEAR=2009
DGENRE=Jazz
TTITLE0=London I
TTITLE1=London II
TTITLE2=London III
TTITLE3=London IV
TTITLE4=London V
TTITLE5=London VI
EXTD=YEAR: 2009
EXTT0=
EXTT1=
EXTT2=
EXTT3=
EXTT4=
EXTT5=
PLAYORDER=
